<svg xmlns="http://www.w3.org/2000/svg" viewBox="0 0 54.69 33.75"><defs><style>.cls-1{fill:#333;}</style></defs><g id="Layer_2" data-name="Layer 2"><g id="Ebene_1" data-name="Ebene 1"><path class="cls-1" d="M54.34,17.7a13,13,0,0,0-11.69-10,16.89,16.89,0,0,0-30.08,3.54A11.27,11.27,0,0,0,1.69,16.53,11.16,11.16,0,0,0,.31,25.06a11.3,11.3,0,0,0,11,8.69H41.65a12.77,12.77,0,0,0,3-.36A13,13,0,0,0,54.34,17.7ZM43.61,29a8.61,8.61,0,0,1-2,.23H11.28A6.75,6.75,0,0,1,9.74,15.89a6.81,6.81,0,0,1,3.71.17,2.26,2.26,0,0,0,2.95-1.69A12.34,12.34,0,0,1,39.34,11a2.3,2.3,0,0,0,2.07,1.19h.25a8.51,8.51,0,0,1,2,16.78Z"/></g></g></svg>