<svg xmlns="http://www.w3.org/2000/svg" viewBox="0 0 71.65 61.88"><defs><style>.cls-1{fill:#333;}</style></defs><g id="Layer_2" data-name="Layer 2"><g id="Ebene_1" data-name="Ebene 1"><path class="cls-1" d="M46.55,11.11a2.27,2.27,0,0,1-2.27-2.27V2.27a2.27,2.27,0,0,1,4.54,0V8.84A2.27,2.27,0,0,1,46.55,11.11Z"/><path class="cls-1" d="M35.05,15.87a2.23,2.23,0,0,1-1.6-.67L28.8,10.56A2.27,2.27,0,0,1,32,7.35L36.66,12a2.27,2.27,0,0,1-1.61,3.87Z"/><path class="cls-1" d="M62.69,43.51a2.26,2.26,0,0,1-1.6-.66L56.45,38.2A2.27,2.27,0,1,1,59.66,35l4.64,4.65a2.27,2.27,0,0,1-1.61,3.87Z"/><path class="cls-1" d="M69.38,27.37H62.81a2.27,2.27,0,0,1,0-4.54h6.57a2.27,2.27,0,1,1,0,4.54Z"/><path class="cls-1" d="M58.05,15.87a2.23,2.23,0,0,1-1.6-.67,2.25,2.25,0,0,1,0-3.2l4.64-4.65a2.27,2.27,0,0,1,3.21,3.21L59.66,15.2A2.26,2.26,0,0,1,58.05,15.87Z"/><path class="cls-1" d="M19.64,57.67a2.26,2.26,0,0,1-2.09-3.13l.57-1.38a2.27,2.27,0,1,1,4.19,1.73l-.57,1.38A2.26,2.26,0,0,1,19.64,57.67Zm2.89-7a2.25,2.25,0,0,1-.87-.17,2.28,2.28,0,0,1-1.23-3L22.75,42a2.27,2.27,0,0,1,4.19,1.74L24.63,49.3A2.26,2.26,0,0,1,22.53,50.7Z"/><path class="cls-1" d="M26.59,61.88a2.16,2.16,0,0,1-.86-.17,2.27,2.27,0,0,1-1.23-3l2.31-5.59A2.27,2.27,0,0,1,31,54.89l-2.32,5.59A2.26,2.26,0,0,1,26.59,61.88ZM31.22,50.7a2.2,2.2,0,0,1-.86-.17,2.27,2.27,0,0,1-1.23-3L31.44,42a2.27,2.27,0,0,1,4.2,1.74L33.32,49.3A2.26,2.26,0,0,1,31.22,50.7Z"/><path class="cls-1" d="M58.56,25.1a12,12,0,0,0-21.77-7,16.92,16.92,0,0,0-19,1.66,17,17,0,0,0-5.18,7.4A11.28,11.28,0,0,0,1.69,32.46,11.17,11.17,0,0,0,.31,41a11.27,11.27,0,0,0,11,8.69H17l1.88-4.54H11.28A6.75,6.75,0,0,1,9.74,31.83a6.86,6.86,0,0,1,1.56-.19,6.6,6.6,0,0,1,2.15.36,2.26,2.26,0,0,0,2.95-1.69,12.34,12.34,0,0,1,22.89-3.45.41.41,0,0,1,.05.09,2.26,2.26,0,0,0,2.07,1.19h.25a8.46,8.46,0,0,1,8.26,6.54,8.12,8.12,0,0,1,.23,1.88,8.5,8.5,0,0,1-6.54,8.35,8.08,8.08,0,0,1-2,.23h-4l-1.88,4.54h5.91a13.31,13.31,0,0,0,3-.35,13.05,13.05,0,0,0,9.79-15.19A12,12,0,0,0,58.56,25.1Zm-8.88,1.27a13.13,13.13,0,0,0-7-2.73,17.32,17.32,0,0,0-2.25-2.78,7.47,7.47,0,1,1,12.17,8.66A12.74,12.74,0,0,0,49.68,26.37Z"/></g></g></svg>