<svg xmlns="http://www.w3.org/2000/svg" viewBox="0 0 54.69 49.48"><defs><style>.cls-1{fill:#333;}</style></defs><g id="Layer_2" data-name="Layer 2"><g id="Ebene_1" data-name="Ebene 1"><path class="cls-1" d="M54.34,17.7a13,13,0,0,0-11.69-10,16.88,16.88,0,0,0-30.08,3.54A11.27,11.27,0,0,0,1.69,16.53,11.16,11.16,0,0,0,.31,25.06a11.26,11.26,0,0,0,7.38,8.09L9.43,29a6.75,6.75,0,0,1,.31-13.06,6.81,6.81,0,0,1,3.71.17,2.26,2.26,0,0,0,2.95-1.69A12.34,12.34,0,0,1,39.34,11a2.3,2.3,0,0,0,2.07,1.19h.25A8.51,8.51,0,0,1,45.9,28.07a3.78,3.78,0,0,1-.21.62l-2,4.9c.34-.05.67-.12,1-.2A13,13,0,0,0,54.34,17.7Z"/><path class="cls-1" d="M10.11,41.74a2.45,2.45,0,0,1-.87-.17A2.27,2.27,0,0,1,8,38.6L13.22,26a2.27,2.27,0,1,1,4.19,1.74l-5.2,12.56A2.29,2.29,0,0,1,10.11,41.74Z"/><path class="cls-1" d="M36.19,41.74a2.45,2.45,0,0,1-.87-.17,2.28,2.28,0,0,1-1.22-3L39.3,26a2.27,2.27,0,1,1,4.19,1.74l-5.2,12.56A2.28,2.28,0,0,1,36.19,41.74Z"/><path class="cls-1" d="M15.65,49.37a2.22,2.22,0,0,1-.87-.18,2.26,2.26,0,0,1-1.23-3L21.91,26a2.27,2.27,0,1,1,4.19,1.74L17.74,48A2.27,2.27,0,0,1,15.65,49.37Z"/><path class="cls-1" d="M24.29,49.48a2.25,2.25,0,0,1-.87-.17,2.27,2.27,0,0,1-1.23-3L30.61,26a2.27,2.27,0,1,1,4.19,1.74l-8.41,20.3A2.26,2.26,0,0,1,24.29,49.48Z"/></g></g></svg>