<svg xmlns="http://www.w3.org/2000/svg" viewBox="0 0 32.55 34.05"><defs><style>.cls-1{fill:#333;}</style></defs><g id="Layer_2" data-name="Layer 2"><g id="Ebene_1" data-name="Ebene 1"><path class="cls-1" d="M24.48,23.49A12.48,12.48,0,0,1,17.72,7.18a12.89,12.89,0,0,1,1.37-2.47,12.27,12.27,0,0,1,4-3.6A17.28,17.28,0,0,0,17.14,0a17,17,0,1,0,6.4,32.75,17,17,0,0,0,9-8.75,12.45,12.45,0,0,1-5.36.27A13.08,13.08,0,0,1,24.48,23.49ZM21.8,28.55A12.48,12.48,0,1,1,12.25,5.49,12.93,12.93,0,0,1,13.73,5a17,17,0,0,0,9.48,22.89A13.1,13.1,0,0,1,21.8,28.55Z"/></g></g></svg>