<svg xmlns="http://www.w3.org/2000/svg" viewBox="0 0 54.69 45.7"><defs><style>.cls-1{fill:#333;}</style></defs><g id="Layer_2" data-name="Layer 2"><g id="Ebene_1" data-name="Ebene 1"><path class="cls-1" d="M37.91,41.76l-1.46-.85,1.46-.84a1.14,1.14,0,0,0-1.13-2L35.32,39V37.27a1.14,1.14,0,0,0-2.27,0V39l-1.45-.84a1.14,1.14,0,0,0-1.14,2l1.45.83-1.45.84A1.13,1.13,0,0,0,31,43.86a1.06,1.06,0,0,0,.57-.15l1.45-.83v1.69a1.14,1.14,0,0,0,2.27,0V42.88l1.46.84a1.06,1.06,0,0,0,.57.15,1.13,1.13,0,0,0,.56-2.11Z"/><path class="cls-1" d="M31.07,32.31l-1.46-.84,1.46-.85a1.13,1.13,0,1,0-1.13-2l-1.47.84V27.83a1.14,1.14,0,0,0-2.27,0V29.5l-1.44-.83a1.13,1.13,0,1,0-1.14,2l1.45.84-1.45.83a1.14,1.14,0,0,0,.57,2.12,1.18,1.18,0,0,0,.57-.15l1.44-.84v1.69a1.14,1.14,0,1,0,2.27,0V33.43l1.47.85a1.15,1.15,0,0,0,.56.15,1.14,1.14,0,0,0,.57-2.12Z"/><path class="cls-1" d="M24.26,41.76l-1.46-.85,1.46-.84a1.14,1.14,0,0,0-1.13-2L21.67,39V37.27a1.14,1.14,0,0,0-2.27,0V39L18,38.11a1.14,1.14,0,0,0-1.14,2l1.45.83-1.45.84a1.13,1.13,0,0,0,.57,2.11,1.08,1.08,0,0,0,.57-.15l1.45-.83v1.69a1.14,1.14,0,0,0,2.27,0V42.88l1.46.84a1,1,0,0,0,.56.15,1.13,1.13,0,0,0,.57-2.11Z"/><path class="cls-1" d="M54.34,17.7a13,13,0,0,0-11.69-10,16.88,16.88,0,0,0-30.08,3.53A11.27,11.27,0,0,0,1.69,16.53,11.16,11.16,0,0,0,.31,25.06a11.3,11.3,0,0,0,11,8.69h3.65a2.27,2.27,0,0,0,0-4.54H11.28A6.75,6.75,0,0,1,9.74,15.89a6.81,6.81,0,0,1,3.71.17,2.26,2.26,0,0,0,2.95-1.69A12.34,12.34,0,0,1,39.34,11a2.28,2.28,0,0,0,2.07,1.19h.25a8.5,8.5,0,0,1,2,16.77,8.61,8.61,0,0,1-2,.23H39.77a2.27,2.27,0,0,0,0,4.54h1.88a12.77,12.77,0,0,0,3-.36A13,13,0,0,0,54.34,17.7Z"/></g></g></svg>