<svg xmlns="http://www.w3.org/2000/svg" viewBox="0 0 66.39 51.36"><defs><style>.cls-1{fill:#333;}</style></defs><g id="Layer_2" data-name="Layer 2"><g id="Ebene_1" data-name="Ebene 1"><path class="cls-1" d="M49.5,46.83H11.57a2.27,2.27,0,1,0,0,4.53H49.5a2.27,2.27,0,1,0,0-4.53Z"/><path class="cls-1" d="M42.47,41.54a2.26,2.26,0,0,0-2.27-2.27H2.27a2.27,2.27,0,0,0,0,4.54H40.2A2.27,2.27,0,0,0,42.47,41.54Z"/><path class="cls-1" d="M65.51,16.46a12,12,0,0,0,.8-5.89l-.06.06A7.42,7.42,0,0,1,53.63,4.58,7.48,7.48,0,0,1,55.76.13l.06,0a12,12,0,0,0-5.89.8A12,12,0,0,0,42.5,11.09,16.88,16.88,0,0,0,20.78,21.3a11.33,11.33,0,0,0-12.12,8h4.89c.06-.12.13-.24.2-.36a6.73,6.73,0,0,1,4.19-3,6.81,6.81,0,0,1,3.71.17,2.26,2.26,0,0,0,3-1.69,12.34,12.34,0,0,1,18.8-7.84,12.18,12.18,0,0,1,4.14,4.49,2.3,2.3,0,0,0,2.07,1.19h.26A8.5,8.5,0,0,1,51.81,39a8.61,8.61,0,0,1-2,.23H44.26a4.66,4.66,0,0,1,0,4.54h5.59a12.77,12.77,0,0,0,3-.36A13,13,0,0,0,60,22.56a12,12,0,0,0,2.91-2.15A11.85,11.85,0,0,0,65.51,16.46Zm-9.59,2.77a13.06,13.06,0,0,0-5.07-1.47,17,17,0,0,0-3.61-4,7.38,7.38,0,0,1,1.89-7A11.95,11.95,0,0,0,59.62,17.26,7.41,7.41,0,0,1,55.92,19.23Z"/><path class="cls-1" d="M7,36.25H45a2.27,2.27,0,1,0,0-4.54H7a2.27,2.27,0,1,0,0,4.54Z"/></g></g></svg>