<svg xmlns="http://www.w3.org/2000/svg" viewBox="0 0 58.19 55.76"><defs><style>.cls-1{fill:#333;}</style></defs><g id="Layer_2" data-name="Layer 2"><g id="Ebene_1" data-name="Ebene 1"><path class="cls-1" d="M38.33,48.58a1.13,1.13,0,0,0-1.55-.42L35.32,49V47.34a1.14,1.14,0,1,0-2.27,0V49l-1.45-.84a1.14,1.14,0,0,0-1.14,2l1.45.83-1.45.84A1.13,1.13,0,0,0,31,53.92a1.06,1.06,0,0,0,.57-.15l1.45-.83v1.69a1.14,1.14,0,0,0,2.27,0V52.94l1.46.84a1.06,1.06,0,0,0,.57.15,1.13,1.13,0,0,0,.56-2.11L36.45,51l1.46-.84A1.13,1.13,0,0,0,38.33,48.58Z"/><path class="cls-1" d="M30.5,44.49a1.14,1.14,0,0,0,.57-2.12l-1.46-.84,1.46-.85a1.13,1.13,0,1,0-1.13-2l-1.46.84V37.89a1.14,1.14,0,0,0-2.27,0v1.67l-1.45-.83a1.13,1.13,0,0,0-1.14,2l1.45.84-1.45.83a1.14,1.14,0,0,0-.41,1.55,1.12,1.12,0,0,0,1,.57,1.18,1.18,0,0,0,.57-.15l1.45-.84v1.69a1.14,1.14,0,1,0,2.27,0V43.49l1.46.85A1.15,1.15,0,0,0,30.5,44.49Z"/><path class="cls-1" d="M24.68,48.58a1.13,1.13,0,0,0-1.55-.42L21.67,49V47.34a1.14,1.14,0,1,0-2.27,0V49L18,48.17a1.14,1.14,0,1,0-1.13,2l1.44.83-1.44.84a1.13,1.13,0,0,0,.56,2.11,1.06,1.06,0,0,0,.57-.15l1.45-.83v1.69a1.14,1.14,0,0,0,2.27,0V52.94l1.46.84a1.06,1.06,0,0,0,.57.15,1.13,1.13,0,0,0,.56-2.11L22.8,51l1.46-.84A1.13,1.13,0,0,0,24.68,48.58Z"/><path class="cls-1" d="M57.31,16.46a12,12,0,0,0,.8-5.89l-.06.06A7.42,7.42,0,0,1,45.43,4.58,7.48,7.48,0,0,1,47.56.13l.06,0a12,12,0,0,0-13.32,11A16.89,16.89,0,0,0,12.57,21.3a11.06,11.06,0,0,0-3.88.24,11.29,11.29,0,0,0,2.59,22.27h3.65a2.27,2.27,0,1,0,0-4.54H11.28A6.75,6.75,0,0,1,9.74,26a6.81,6.81,0,0,1,3.71.17,2.26,2.26,0,0,0,2.95-1.69,12.34,12.34,0,0,1,22.94-3.35,2.3,2.3,0,0,0,2.07,1.19h.25a8.5,8.5,0,0,1,2,16.78,8.61,8.61,0,0,1-2,.23H39.77a2.27,2.27,0,0,0,0,4.54h1.88a12.77,12.77,0,0,0,3-.36,13,13,0,0,0,7.12-20.89,12.17,12.17,0,0,0,2.91-2.15A11.85,11.85,0,0,0,57.31,16.46Zm-9.6,2.77a13,13,0,0,0-5.06-1.47,17.08,17.08,0,0,0-3.62-4,7.41,7.41,0,0,1,1.9-7A11.95,11.95,0,0,0,51.42,17.26,7.39,7.39,0,0,1,47.71,19.23Z"/></g></g></svg>