<svg xmlns="http://www.w3.org/2000/svg" viewBox="0 0 67.42 40.43"><defs><style>.cls-1{fill:#333;}</style></defs><g id="Layer_2" data-name="Layer 2"><g id="Ebene_1" data-name="Ebene 1"><path class="cls-1" d="M67.07,17.7a13,13,0,0,0-11.7-10,16.86,16.86,0,0,0-27.62-1A16.9,16.9,0,0,0,12.57,17.93,11.27,11.27,0,0,0,1.69,23.22,11.16,11.16,0,0,0,.31,31.75a11.27,11.27,0,0,0,11,8.68H41.65a13.31,13.31,0,0,0,3-.35A13,13,0,0,0,53,33.75h1.35a12.63,12.63,0,0,0,3-.36A13.05,13.05,0,0,0,67.07,17.7ZM47.3,33.75a8.51,8.51,0,0,1-5.65,2.15H11.28A6.75,6.75,0,0,1,9.74,22.58a6.49,6.49,0,0,1,3,0,6.44,6.44,0,0,1,.72.2,2.29,2.29,0,0,0,1.86-.18,2.26,2.26,0,0,0,1.09-1.51,12.36,12.36,0,0,1,12.08-9.83,11.94,11.94,0,0,1,1.7.11,12.32,12.32,0,0,1,9.16,6.37,2.3,2.3,0,0,0,2.07,1.19h.25A8.52,8.52,0,0,1,50,29.21,8.64,8.64,0,0,1,47.3,33.75Zm9-4.77a9,9,0,0,1-1.77.23,12.91,12.91,0,0,0-.23-4.82,13,13,0,0,0-11.69-10,16.82,16.82,0,0,0-9.32-7A12.32,12.32,0,0,1,52.07,11a2.27,2.27,0,0,0,2.06,1.19h.26a8.51,8.51,0,0,1,2,16.78Z"/></g></g></svg>