<svg xmlns="http://www.w3.org/2000/svg" viewBox="0 0 54.69 49.37"><defs><style>.cls-1{fill:#333;}</style></defs><g id="Layer_2" data-name="Layer 2"><g id="Ebene_1" data-name="Ebene 1"><path class="cls-1" d="M54.34,17.7a13.08,13.08,0,0,0-11.69-10,16.88,16.88,0,0,0-30.08,3.54,11.3,11.3,0,0,0-3.88.24A11.28,11.28,0,0,0,.31,25.06a11.3,11.3,0,0,0,11,8.69h1l1.88-4.54H11.28A6.75,6.75,0,0,1,9.74,15.89a6.81,6.81,0,0,1,3.71.17,2.26,2.26,0,0,0,2.95-1.69A12.34,12.34,0,0,1,39.34,11a2.3,2.3,0,0,0,2.07,1.19h.25a8.5,8.5,0,0,1,4.2,15.88c0,.09-.07.17-.1.25L43.58,33.6a10.28,10.28,0,0,0,1.08-.21A13,13,0,0,0,54.34,17.7Z"/><path class="cls-1" d="M14.93,41.74a2.2,2.2,0,0,1-.86-.17,2.27,2.27,0,0,1-1.23-3L18,26a2.27,2.27,0,0,1,4.2,1.74L17,40.34A2.28,2.28,0,0,1,14.93,41.74Z"/><path class="cls-1" d="M20.47,49.37a2.29,2.29,0,0,1-2.1-3.14L26.74,26a2.27,2.27,0,1,1,4.19,1.74L22.57,48A2.28,2.28,0,0,1,20.47,49.37Z"/><path class="cls-1" d="M41.17,30.25l-1.46-.85,1.46-.84a1.14,1.14,0,0,0-1.13-2l-1.47.85V25.77a1.14,1.14,0,1,0-2.27,0v1.67l-1.44-.84a1.14,1.14,0,0,0-1.14,2l1.45.83-1.45.84a1.13,1.13,0,0,0-.41,1.55,1.14,1.14,0,0,0,1,.57,1.18,1.18,0,0,0,.57-.15l1.44-.84v1.69a1.14,1.14,0,0,0,2.27,0V31.37l1.47.84a1,1,0,0,0,.56.16,1.14,1.14,0,0,0,1-.57A1.13,1.13,0,0,0,41.17,30.25Z"/><path class="cls-1" d="M36.88,40.31l-1.46-.85,1.46-.84a1.14,1.14,0,0,0-1.13-2l-1.47.85V35.83a1.14,1.14,0,1,0-2.27,0V37.5l-1.44-.84a1.14,1.14,0,0,0-1.14,2l1.45.83-1.45.84A1.13,1.13,0,0,0,29,41.85a1.14,1.14,0,0,0,1,.57,1.1,1.1,0,0,0,.57-.16L32,41.43v1.69a1.14,1.14,0,0,0,2.27,0V41.43l1.47.84a1,1,0,0,0,.56.15,1.13,1.13,0,0,0,.57-2.11Z"/></g></g></svg>