<svg xmlns="http://www.w3.org/2000/svg" viewBox="0 0 62.9 41.3"><defs><style>.cls-1{fill:#333;}</style></defs><g id="Layer_2" data-name="Layer 2"><g id="Ebene_1" data-name="Ebene 1"><path class="cls-1" d="M49.5,41.3H11.57a2.27,2.27,0,1,1,0-4.53H49.5a2.27,2.27,0,1,1,0,4.53Z"/><path class="cls-1" d="M40.2,33.75H2.27a2.27,2.27,0,0,1,0-4.54H40.2a2.27,2.27,0,0,1,0,4.54Z"/><path class="cls-1" d="M45,26.19H7a2.27,2.27,0,1,1,0-4.54H45a2.27,2.27,0,0,1,0,4.54Z"/><path class="cls-1" d="M62.54,17.7a13,13,0,0,0-11.69-10,16.88,16.88,0,0,0-30.07,3.54,11.34,11.34,0,0,0-3.89.24,11.33,11.33,0,0,0-8.23,7.79h4.89c.06-.12.13-.24.2-.36a6.76,6.76,0,0,1,4.19-3,6.81,6.81,0,0,1,3.71.17,2.26,2.26,0,0,0,3-1.69A12.34,12.34,0,0,1,47.54,11a2.3,2.3,0,0,0,2.07,1.19h.26A8.5,8.5,0,0,1,51.81,29a8.61,8.61,0,0,1-2,.23H44.26a4.59,4.59,0,0,1,0,4.54h5.59a12.77,12.77,0,0,0,3-.36A13,13,0,0,0,62.54,17.7Z"/></g></g></svg>