<svg xmlns="http://www.w3.org/2000/svg" viewBox="0 0 56.68 35.07"><defs><style>.cls-1{fill:#333;}</style></defs><g id="Layer_2" data-name="Layer 2"><g id="Ebene_1" data-name="Ebene 1"><path class="cls-1" d="M4.3,12.25H38.46A6.13,6.13,0,0,0,38.46,0a2.27,2.27,0,0,0,0,4.54,1.59,1.59,0,0,1,0,3.17H4.3a2.27,2.27,0,0,0,0,4.54Z"/><path class="cls-1" d="M50.56,7.56a2.27,2.27,0,0,0,0,4.54,1.59,1.59,0,0,1,0,3.17H2.27a2.27,2.27,0,1,0,0,4.53H50.56a6.12,6.12,0,0,0,0-12.24Z"/><path class="cls-1" d="M44.36,22.82H8.84a2.27,2.27,0,0,0,0,4.54H44.36a1.59,1.59,0,0,1,0,3.17,2.27,2.27,0,1,0,0,4.54,6.13,6.13,0,0,0,0-12.25Z"/></g></g></svg>