<svg xmlns="http://www.w3.org/2000/svg" viewBox="0 0 80.15 57.24"><defs><style>.cls-1{fill:#333;}</style></defs><g id="Layer_2" data-name="Layer 2"><g id="Ebene_1" data-name="Ebene 1"><path class="cls-1" d="M55.05,11.11a2.27,2.27,0,0,1-2.26-2.27V2.27a2.27,2.27,0,1,1,4.53,0V8.84A2.27,2.27,0,0,1,55.05,11.11Z"/><path class="cls-1" d="M43.56,15.87A2.23,2.23,0,0,1,42,15.2l-4.64-4.64a2.27,2.27,0,0,1,3.21-3.21L45.16,12a2.25,2.25,0,0,1,0,3.2A2.23,2.23,0,0,1,43.56,15.87Z"/><path class="cls-1" d="M71.2,43.51a2.3,2.3,0,0,1-1.61-.66L65,38.2A2.27,2.27,0,0,1,68.16,35l4.64,4.65a2.27,2.27,0,0,1-1.6,3.87Z"/><path class="cls-1" d="M77.88,27.37H71.32a2.27,2.27,0,1,1,0-4.54h6.56a2.27,2.27,0,1,1,0,4.54Z"/><path class="cls-1" d="M66.55,15.87A2.23,2.23,0,0,1,65,15.2,2.25,2.25,0,0,1,65,12l4.64-4.65a2.27,2.27,0,0,1,3.21,3.21L68.16,15.2A2.25,2.25,0,0,1,66.55,15.87Z"/><path class="cls-1" d="M49.5,57.24H11.57a2.27,2.27,0,0,1,0-4.54H49.5a2.27,2.27,0,1,1,0,4.54Z"/><path class="cls-1" d="M40.2,49.68H2.27a2.27,2.27,0,0,1,0-4.54H40.2a2.27,2.27,0,0,1,0,4.54Z"/><path class="cls-1" d="M45,42.12H7a2.27,2.27,0,1,1,0-4.53H45a2.27,2.27,0,1,1,0,4.53Z"/><path class="cls-1" d="M67.06,25.1A12,12,0,0,0,45.2,18.24a16.89,16.89,0,0,0-24.43,8.94,11.31,11.31,0,0,0-12.11,8h4.88l.21-.35a6.69,6.69,0,0,1,4.19-3,6.86,6.86,0,0,1,1.56-.19,6.6,6.6,0,0,1,2.15.36,2.26,2.26,0,0,0,3-1.69A12.34,12.34,0,0,1,47.54,27a2.37,2.37,0,0,0,.45.58,2.23,2.23,0,0,0,1.62.61h.25a8.5,8.5,0,0,1,8.27,6.54,8.32,8.32,0,0,1,.22,2,8.5,8.5,0,0,1-6.54,8.26,8.08,8.08,0,0,1-2,.23H44.26a4.62,4.62,0,0,1,.59,2.27,4.57,4.57,0,0,1-.59,2.27h5.59a13.31,13.31,0,0,0,3-.35,13.05,13.05,0,0,0,9.83-15A12,12,0,0,0,67.06,25.1Zm-9.18,1.27a13.13,13.13,0,0,0-7-2.73,16.34,16.34,0,0,0-2.07-2.59,7.47,7.47,0,1,1,12.13,8.68A12.92,12.92,0,0,0,57.88,26.37Z"/></g></g></svg>