<svg xmlns="http://www.w3.org/2000/svg" viewBox="0 0 54.69 49.7"><defs><style>.cls-1{fill:#333;}</style></defs><g id="Layer_2" data-name="Layer 2"><g id="Ebene_1" data-name="Ebene 1"><path class="cls-1" d="M44.66,33.4a13.31,13.31,0,0,1-3,.35H36.48a2.27,2.27,0,1,1,0-4.54h5.17a8.61,8.61,0,0,0,2-.23,8.51,8.51,0,0,0-2-16.78h-.25A2.3,2.3,0,0,1,39.34,11,12.34,12.34,0,0,0,16.4,14.37a2.26,2.26,0,0,1-2.95,1.69,6.81,6.81,0,0,0-3.71-.17,6.75,6.75,0,0,0,1.54,13.32h7.6a2.27,2.27,0,0,1,0,4.54h-7.6a11.3,11.3,0,0,1-11-8.69A11.28,11.28,0,0,1,8.69,11.48a11.3,11.3,0,0,1,3.88-.24A16.88,16.88,0,0,1,42.65,7.71a13,13,0,0,1,2,25.69Z"/><polygon class="cls-1" points="28.28 33.16 31.49 33.16 24.64 49.7 26.28 37.78 23.23 37.78 25.63 24.57 31.87 24.57 28.28 33.16"/></g></g></svg>