<svg xmlns="http://www.w3.org/2000/svg" viewBox="0 0 58.19 56.01"><defs><style>.cls-1{fill:#333;}</style></defs><g id="Layer_2" data-name="Layer 2"><g id="Ebene_1" data-name="Ebene 1"><path class="cls-1" d="M26.94,37.84a2.27,2.27,0,1,0-4.19-1.74l-2.32,5.59a2.29,2.29,0,0,0,1.23,3,2.45,2.45,0,0,0,.87.17,2.28,2.28,0,0,0,2.1-1.4Z"/><path class="cls-1" d="M21.08,46.05a2.27,2.27,0,0,0-3,1.23l-.57,1.38a2.28,2.28,0,0,0,1.22,3,2.25,2.25,0,0,0,.87.17,2.28,2.28,0,0,0,2.1-1.4L22.31,49A2.27,2.27,0,0,0,21.08,46.05Z"/><path class="cls-1" d="M57.31,16.46a12,12,0,0,0,.8-5.89l-.06.06A7.42,7.42,0,0,1,45.43,4.58,7.48,7.48,0,0,1,47.56.13l.06,0a12,12,0,0,0-13.32,11A16.89,16.89,0,0,0,12.57,21.3a11.06,11.06,0,0,0-3.88.24A11.28,11.28,0,0,0,4.34,41.41a11.32,11.32,0,0,0,6.94,2.4H17l1.88-4.54H11.28A6.75,6.75,0,0,1,9.74,26a6.81,6.81,0,0,1,3.71.17,2.26,2.26,0,0,0,2.95-1.69,12.34,12.34,0,0,1,22.94-3.35,2.3,2.3,0,0,0,2.07,1.19h.25a8.51,8.51,0,0,1,2,16.78,8.61,8.61,0,0,1-2,.23h-4l-1.88,4.54h5.91a12.77,12.77,0,0,0,3-.36,13,13,0,0,0,7.12-20.89,11.93,11.93,0,0,0,2.9-2.15A11.73,11.73,0,0,0,57.31,16.46Zm-9.6,2.77a13,13,0,0,0-5.06-1.47,17.08,17.08,0,0,0-3.62-4,7.41,7.41,0,0,1,1.9-7A11.95,11.95,0,0,0,51.42,17.26,7.39,7.39,0,0,1,47.71,19.23Z"/><path class="cls-1" d="M29.78,46.05a2.27,2.27,0,0,0-3,1.23L24.5,52.87a2.27,2.27,0,0,0,1.23,3,2.35,2.35,0,0,0,.86.17,2.28,2.28,0,0,0,2.1-1.4L31,49A2.27,2.27,0,0,0,29.78,46.05Z"/><path class="cls-1" d="M34.41,34.87a2.27,2.27,0,0,0-3,1.23l-2.31,5.59a2.27,2.27,0,0,0,1.23,3,2.39,2.39,0,0,0,.86.17,2.28,2.28,0,0,0,2.1-1.4l2.32-5.59A2.27,2.27,0,0,0,34.41,34.87Z"/></g></g></svg>