<svg xmlns="http://www.w3.org/2000/svg" viewBox="0 0 54.69 45.95"><defs><style>.cls-1{fill:#333;}</style></defs><g id="Layer_2" data-name="Layer 2"><g id="Ebene_1" data-name="Ebene 1"><path class="cls-1" d="M19.64,41.74a2.25,2.25,0,0,1-.87-.17,2.28,2.28,0,0,1-1.22-3l.57-1.38A2.27,2.27,0,1,1,22.31,39l-.57,1.38A2.28,2.28,0,0,1,19.64,41.74Zm2.89-7a2.45,2.45,0,0,1-.87-.17,2.27,2.27,0,0,1-1.23-3L22.75,26a2.27,2.27,0,1,1,4.19,1.74l-2.31,5.59A2.28,2.28,0,0,1,22.53,34.77Z"/><path class="cls-1" d="M26.59,46a2.35,2.35,0,0,1-.86-.17,2.27,2.27,0,0,1-1.23-3l2.31-5.59A2.27,2.27,0,0,1,31,39l-2.32,5.59A2.28,2.28,0,0,1,26.59,46Zm4.63-11.18a2.35,2.35,0,0,1-.86-.17,2.27,2.27,0,0,1-1.23-3L31.44,26a2.27,2.27,0,0,1,4.2,1.74l-2.32,5.59A2.28,2.28,0,0,1,31.22,34.77Z"/><path class="cls-1" d="M54.34,17.7a13,13,0,0,0-11.69-10,16.88,16.88,0,0,0-30.08,3.53,11.3,11.3,0,0,0-3.88.24A11.28,11.28,0,0,0,.31,25.06a11.3,11.3,0,0,0,11,8.69H17l1.88-4.54H11.28A6.75,6.75,0,0,1,9.74,15.89a6.81,6.81,0,0,1,3.71.17,2.26,2.26,0,0,0,2.95-1.69A12.34,12.34,0,0,1,39.34,11a2.28,2.28,0,0,0,2.07,1.19h.25a8.5,8.5,0,0,1,2,16.77,8.61,8.61,0,0,1-2,.23h-4l-1.88,4.54h5.91a12.77,12.77,0,0,0,3-.36A13,13,0,0,0,54.34,17.7Z"/></g></g></svg>