<svg xmlns="http://www.w3.org/2000/svg" viewBox="0 0 71.65 61.64"><defs><style>.cls-1{fill:#333;}</style></defs><g id="Layer_2" data-name="Layer 2"><g id="Ebene_1" data-name="Ebene 1"><path class="cls-1" d="M46.55,11.11a2.27,2.27,0,0,1-2.27-2.27V2.27a2.27,2.27,0,0,1,4.54,0V8.84A2.27,2.27,0,0,1,46.55,11.11Z"/><path class="cls-1" d="M35.05,15.87a2.23,2.23,0,0,1-1.6-.67L28.8,10.56A2.27,2.27,0,0,1,32,7.35L36.66,12a2.27,2.27,0,0,1-1.61,3.87Z"/><path class="cls-1" d="M62.69,43.51a2.26,2.26,0,0,1-1.6-.66L56.45,38.2A2.27,2.27,0,1,1,59.66,35l4.64,4.65a2.27,2.27,0,0,1-1.61,3.87Z"/><path class="cls-1" d="M69.38,27.37H62.81a2.27,2.27,0,0,1,0-4.54h6.57a2.27,2.27,0,1,1,0,4.54Z"/><path class="cls-1" d="M58.05,15.87a2.23,2.23,0,0,1-1.6-.67,2.25,2.25,0,0,1,0-3.2l4.64-4.65a2.27,2.27,0,0,1,3.21,3.21L59.66,15.2A2.26,2.26,0,0,1,58.05,15.87Z"/><path class="cls-1" d="M37.91,57.69l-1.46-.84L37.91,56a1.13,1.13,0,1,0-1.13-2l-1.46.84V53.21a1.14,1.14,0,0,0-2.27,0v1.67l-1.45-.83a1.13,1.13,0,0,0-1.14,2l1.45.84-1.45.83a1.14,1.14,0,0,0-.41,1.55,1.12,1.12,0,0,0,1,.57,1.18,1.18,0,0,0,.57-.15l1.45-.84V60.5a1.14,1.14,0,1,0,2.27,0V58.81l1.46.85a1.16,1.16,0,0,0,.57.15,1.12,1.12,0,0,0,1-.57A1.13,1.13,0,0,0,37.91,57.69Z"/><path class="cls-1" d="M31.07,48.25l-1.46-.85,1.46-.84a1.14,1.14,0,1,0-1.13-2l-1.47.85V43.77a1.13,1.13,0,1,0-2.26,0v1.67l-1.45-.84a1.14,1.14,0,0,0-1.14,2l1.45.83-1.45.84a1.13,1.13,0,0,0-.41,1.55,1.14,1.14,0,0,0,1,.57,1.1,1.1,0,0,0,.57-.16l1.45-.83v1.69a1.13,1.13,0,1,0,2.26,0V49.37l1.47.84a1.07,1.07,0,0,0,.57.16,1.14,1.14,0,0,0,.56-2.12Z"/><path class="cls-1" d="M24.26,57.69l-1.46-.84L24.26,56a1.13,1.13,0,1,0-1.13-2l-1.46.84V53.21a1.14,1.14,0,0,0-2.27,0v1.67L18,54.05a1.13,1.13,0,1,0-1.13,2l1.44.84-1.44.83a1.13,1.13,0,0,0-.42,1.55,1.12,1.12,0,0,0,1,.57,1.16,1.16,0,0,0,.57-.15l1.45-.84V60.5a1.14,1.14,0,1,0,2.27,0V58.81l1.46.85a1.16,1.16,0,0,0,.57.15,1.12,1.12,0,0,0,1-.57A1.13,1.13,0,0,0,24.26,57.69Z"/><path class="cls-1" d="M58.56,25.1a12,12,0,0,0-21.77-7,16.89,16.89,0,0,0-24.22,9.06,11.29,11.29,0,0,0-3.88.23A11.3,11.3,0,0,0,.31,41a11.27,11.27,0,0,0,11,8.69h3.65a2.27,2.27,0,0,0,0-4.54H11.28A6.74,6.74,0,0,1,5.55,34.85a6.66,6.66,0,0,1,4.19-3,6.34,6.34,0,0,1,1.56-.19,6.6,6.6,0,0,1,2.15.36,2.26,2.26,0,0,0,2.95-1.69,12.34,12.34,0,0,1,22.89-3.45.41.41,0,0,1,.05.09,2.26,2.26,0,0,0,2.07,1.19h.25a8.46,8.46,0,0,1,8.26,6.54,8.12,8.12,0,0,1,.23,1.88,8.5,8.5,0,0,1-6.54,8.35,8.08,8.08,0,0,1-2,.23H39.77a2.27,2.27,0,1,0,0,4.54h1.88a13.31,13.31,0,0,0,3-.35,13.05,13.05,0,0,0,9.79-15.19A12,12,0,0,0,58.56,25.1Zm-8.88,1.27a13.13,13.13,0,0,0-7-2.73,17.32,17.32,0,0,0-2.25-2.78,7.47,7.47,0,1,1,12.17,8.66A12.92,12.92,0,0,0,49.68,26.37Z"/></g></g></svg>