<svg xmlns="http://www.w3.org/2000/svg" viewBox="0 0 58.19 43.81"><defs><style>.cls-1{fill:#333;}</style></defs><g id="Layer_2" data-name="Layer 2"><g id="Ebene_1" data-name="Ebene 1"><path class="cls-1" d="M57.31,16.46a12,12,0,0,0,.8-5.89l-.06.06A7.42,7.42,0,0,1,45.43,4.58,7.42,7.42,0,0,1,47.56.13l.06,0a12,12,0,0,0-13.32,11A16.89,16.89,0,0,0,12.57,21.3a11.06,11.06,0,0,0-3.88.24,11.29,11.29,0,0,0,2.59,22.27H41.65a12.77,12.77,0,0,0,3-.36,13,13,0,0,0,7.12-20.89,12.17,12.17,0,0,0,2.91-2.15A11.85,11.85,0,0,0,57.31,16.46ZM40.93,6.77A11.95,11.95,0,0,0,51.42,17.26a7.39,7.39,0,0,1-3.71,2,13,13,0,0,0-5.06-1.47,17.08,17.08,0,0,0-3.62-4A7.41,7.41,0,0,1,40.93,6.77ZM43.61,39a8.61,8.61,0,0,1-2,.23H11.28A6.75,6.75,0,0,1,9.74,26a6.81,6.81,0,0,1,3.71.17,2.26,2.26,0,0,0,2.95-1.69,12.34,12.34,0,0,1,22.94-3.35,2.3,2.3,0,0,0,2.07,1.19h.25a8.51,8.51,0,0,1,2,16.78Z"/></g></g></svg>