<svg xmlns="http://www.w3.org/2000/svg" viewBox="0 0 50.2 50.2"><defs><style>.cls-1{fill:#333;}</style></defs><g id="Layer_2" data-name="Layer 2"><g id="Ebene_1" data-name="Ebene 1"><path class="cls-1" d="M25.1,11.11a2.27,2.27,0,0,1-2.27-2.27V2.27a2.27,2.27,0,1,1,4.54,0V8.84A2.27,2.27,0,0,1,25.1,11.11Z"/><path class="cls-1" d="M8.84,27.37H2.27a2.27,2.27,0,0,1,0-4.54H8.84a2.27,2.27,0,0,1,0,4.54Z"/><path class="cls-1" d="M25.1,50.2a2.27,2.27,0,0,1-2.27-2.27V41.36a2.27,2.27,0,0,1,4.54,0v6.57A2.27,2.27,0,0,1,25.1,50.2Z"/><path class="cls-1" d="M47.93,27.37H41.36a2.27,2.27,0,1,1,0-4.54h6.57a2.27,2.27,0,1,1,0,4.54Z"/><path class="cls-1" d="M25.1,37.11a12,12,0,1,1,12-12A12,12,0,0,1,25.1,37.11Zm0-19.48a7.47,7.47,0,1,0,7.47,7.47A7.48,7.48,0,0,0,25.1,17.63Z"/><path class="cls-1" d="M13.6,15.87a2.26,2.26,0,0,1-1.6-.66L9.67,12.88a2.27,2.27,0,0,1,3.21-3.21L15.2,12a2.27,2.27,0,0,1-1.6,3.87Z"/><path class="cls-1" d="M11.28,41.19a2.27,2.27,0,0,1-1.61-3.87L12,35a2.26,2.26,0,0,1,3.2,3.2l-2.32,2.33A2.26,2.26,0,0,1,11.28,41.19Z"/><path class="cls-1" d="M38.92,41.19a2.26,2.26,0,0,1-1.6-.66L35,38.2A2.27,2.27,0,1,1,38.2,35l2.32,2.32a2.27,2.27,0,0,1-1.6,3.87Z"/><path class="cls-1" d="M36.6,15.87A2.27,2.27,0,0,1,35,12l2.33-2.33a2.27,2.27,0,1,1,3.2,3.21L38.2,15.21A2.26,2.26,0,0,1,36.6,15.87Z"/></g></g></svg>